<?xml version="1.0" standalone="no"?>
<!DOCTYPE svg PUBLIC "-//W3C//DTD SVG 20010904//EN"
 "http://www.w3.org/TR/2001/REC-SVG-20010904/DTD/svg10.dtd">
<svg version="1.0" xmlns="http://www.w3.org/2000/svg"
 width="180.000000pt" height="180.000000pt" viewBox="0 0 180.000000 180.000000"
 preserveAspectRatio="xMidYMid meet">
<metadata>
Created by potrace 1.14, written by Peter Selinger 2001-2017
</metadata>
<g transform="translate(0.000000,180.000000) scale(0.100000,-0.100000)"
fill="#000000" stroke="none">
<path d="M715 1765 c-161 -35 -299 -110 -422 -228 -184 -177 -273 -383 -273
-633 0 -186 47 -348 142 -490 252 -377 729 -505 1133 -304 479 238 637 846
334 1291 -123 181 -329 318 -549 364 -87 18 -282 18 -365 0z m-10 -276 c137
-38 167 -148 105 -384 -18 -66 -34 -129 -37 -141 -5 -20 -2 -21 74 -17 43 2
106 6 140 9 l62 5 15 42 c8 23 36 101 60 173 62 179 80 217 111 242 56 44 115
18 115 -49 0 -21 -14 -75 -31 -121 -17 -46 -46 -128 -65 -182 l-34 -99 64 6
c80 8 105 1 112 -30 10 -40 -14 -54 -112 -65 -49 -6 -92 -13 -97 -17 -12 -11
-47 -206 -47 -261 0 -37 5 -55 20 -70 40 -40 99 -19 194 70 36 35 68 61 70 59
3 -2 13 -28 24 -56 l20 -53 -50 -45 c-106 -95 -242 -149 -318 -126 -80 24
-129 94 -130 183 0 40 24 177 45 261 7 26 5 28 -16 23 -13 -3 -78 -10 -144
-17 -66 -6 -123 -14 -126 -17 -3 -4 -30 -78 -59 -165 -73 -217 -118 -283 -183
-270 -16 3 -35 16 -44 30 -14 22 -14 29 2 91 10 37 33 108 52 157 18 50 36
105 39 123 6 32 6 32 -32 32 -54 0 -116 40 -138 88 -31 68 -9 101 38 60 24
-21 35 -23 110 -20 l84 3 35 92 c47 125 57 163 57 227 0 94 -40 123 -127 94
-26 -9 -66 -28 -88 -43 -22 -15 -57 -40 -79 -54 -21 -15 -42 -24 -47 -21 -16
10 -9 88 11 121 20 34 86 87 130 105 85 36 152 44 215 27z"/>
</g>
</svg>
